<svg id="Layer_1" data-name="Layer 1" xmlns="http://www.w3.org/2000/svg" viewBox="0 0 179.5 211"><defs><style>.cls-1{fill:#fff;}</style></defs><title>logo-1</title><path class="cls-1" d="M219.74,140.07v100.1c0,5.4,0,5.4-5.4,5.4H45.64c-5.4,0-5.4,0-5.4-5.4V40c0-5.4,0-5.4,5.4-5.4h168.7c5.4,0,5.4,0,5.4,5.4Zm-8.4-.1h0V49.57c0-6.5,0-6.5-6.4-6.5H53.44c-5.7,0-5.7,0-5.7,5.5v182.2c0,5.7,0,5.7,5.6,5.7h152.6c5.4,0,5.4,0,5.4-5.5Z" transform="translate(-40.24 -34.57)"/><path class="cls-1" d="M207.74,140.37v87.7c0,5.4-.1,5.5-5.4,5.5h-66.4c-3.1,0-4.2-.1-4.6-1.5-.2-.7-.1-17.3-.3-24.3a16,16,0,0,1,2.7-9.5c8.9-13.7,20.9-21.2,37.8-19.4,5.4.6,6.1,1.4,4.7,6.6-3.5,13.2-18.6,23.9-31.8,22.6-1.6-.2-3.6,0-4.4-1.6s1.1-2.6,1.9-3.7c5.1-6.4,10.6-12.4,19.1-14.3,1.1-.2,2.3-1,3.1.1s-.4,2.1-1.1,2.9c-2.9,3.6-6.1,6.6-11.1,6.9-1.2.1-2.5.3-2.4,1.8s1.6,1.4,2.7,1.5a11.84,11.84,0,0,0,6.1-1.6c5.4-2.8,8.5-7.6,11.4-12.6,1.5-2.7-.8-3-2.5-3.1a27.4,27.4,0,0,0-17.8,6,66.46,66.46,0,0,0-13.7,14.8c-1.9,2.7-1.1,4,1.7,4.9a28.06,28.06,0,0,0,18.1.2c13-4.5,21.5-13.3,24.6-26.9,1.2-5,.5-6.1-4.4-7.1-16-3.3-29.3,1.4-40,13.7-1.2,1.4-2.2,4.1-3.9,3.5s-.7-3.3-.8-5.1c-.1-4.5.3-9-.1-13.5-.6-6.3,1.6-11.4,5.3-16.2,9.4-12.3,21.7-17.6,37.1-15.3,3.3.5,4.1,1.8,3.2,5-3.9,14.5-18.1,25-32.8,23.9-1.4-.1-3.1.1-3.8-1.2-.8-1.6.8-2.7,1.7-3.8,5-6.2,10.3-12,18.3-14.2,1.3-.4,3.1-1.6,4.1-.1s-.9,2.4-1.6,3.4c-2.5,3.5-5.7,5.9-10.2,6.2-1.3.1-2.8.3-2.7,1.9.1,2,1.9,1.7,3.2,1.6,3.5-.2,6.4-1.9,9-4.1a33.84,33.84,0,0,0,7.4-9.4c1.7-3,1.3-3.5-2.3-3.6a27.08,27.08,0,0,0-18.7,6.5,74.63,74.63,0,0,0-12.7,14.2c-1.5,2.1-1.2,3.3,1.2,4.3a25.82,25.82,0,0,0,14,1.7c14.3-2.3,26.8-14.3,29.5-28.4.9-4.7.3-5.8-4.4-6.7-16.6-3.2-30.3,1.6-41,14.8l-1.2,1.5c-.5.6-.9,1.4-1.7,1.2s-.8-1.2-.8-1.9c0-7.5,0-15,.1-22.5a6.51,6.51,0,0,1,.8-2.8c8-13.9,19.6-22.4,36.8-20.6,4.6.5,5.3,1.4,4.1,5.7-3.4,12.6-16.5,22.1-29.3,21.2-1.5-.1-3.4,0-4.1-1.4-.8-1.6,1-2.7,1.9-3.8,4.8-5.6,9.9-11,17.5-12.8.9-.2,2.1-.9,2.8,0s-.4,1.8-1,2.6c-2.5,3.1-5.4,5.6-9.5,6.2-1.3.2-3.2.1-2.9,2s2.3,1.6,3.7,1.4a12.07,12.07,0,0,0,5.5-2.2,33.33,33.33,0,0,0,9.1-10.3c1.5-2.5.8-3.6-2.1-3.7-8.6-.3-15.5,3.6-21.2,9.5a90.44,90.44,0,0,0-7.9,9.5c-2.3,3-1,3.9,1.7,5a25.11,25.11,0,0,0,18.3-.5c10.8-4.2,18.1-11.9,21-23.3,1.5-6,.5-7.3-5.5-8.3-14.6-2.4-26.5,2.3-36,13.6a16.61,16.61,0,0,1-1.3,1.4c-.5.5-1,1.3-1.8,1.2-1-.2-.8-1.2-.7-1.9.2-2.4-1.2-3.9-2.7-5.5-14.9-16-15.6-35.1-2.1-52.3,2.7-3.4,3.3-3.5,6.4-.4,10.8,10.9,12.5,28.6,4,41-3.4,5-4.2,4.9-7.1-.3-4.3-7.8-6.2-15.8-2.6-24.4.6-1.5.9-3.7,2.6-3.8,2-.2,2,2.3,2.5,3.6,1.6,4.3,2.3,8.7-.2,13-.7,1.2-.9,2.5.5,3.2s2.1-.6,2.6-1.5a13.23,13.23,0,0,0,2-7.5,32.3,32.3,0,0,0-5-15.6c-1.1-1.8-2.3-2.4-3.7-.4-4.8,6.8-7.7,14.3-6.1,22.8,1.2,6.1,4,11.5,7,16.9,1.6,2.9,3.3,2.9,5.6.8,10.4-9.5,12.2-21.3,9.1-34.3a32.81,32.81,0,0,0-12.4-19.1c-2-1.6-3.5-1.4-5.1.4-15.5,17.4-18.8,40.3-1.5,59.1,1.3,1.4,2.7,2.7,2.8,4.7,0,.6.1,1.3-.6,1.6s-1.1-.3-1.5-.7a58.59,58.59,0,0,0-6.4-6.8c-9.4-8.3-20.3-10.8-32.4-8.6-5.1.9-6.1,2.5-4.7,7.6,4,14.2,13.3,22.8,27.8,25.6,4.5.8,8.7-.2,12.9-1.7,1.6-.6,2.8-1.4,1.4-3.3-5.5-7.4-11.1-14.5-19.8-18.4a23.56,23.56,0,0,0-11.4-1.7c-1.2.1-2.6.3-1.7,2,3.2,5.9,6.7,11.5,13.6,13.7a12,12,0,0,0,3.3.5c1,0,2.2-.1,2.3-1.4s-.9-2-2.1-2c-4.7-.2-7.7-3.2-10.5-6.5-.5-.6-1.4-1.4-.8-2.3s1.6-.4,2.4-.2c6.5,1.5,11.4,5.4,15.6,10.4.6.7,1.1,1.4,1.6,2.1.9,1.4,3.2,2.4,2.1,4.4-.9,1.7-3.2,1.1-4.9,1.2-12.8.3-25.6-9.8-28.5-22.3-.7-3.2.8-4.1,3.4-4.4,13.2-1.8,24.1,2.5,32.6,12.7,4.4,5.3,7.1,11,6.3,18.2-.5,4.4-.1,9-.1,13.5,0,1.1.4,2.6-.8,3.1-1.4.6-1.8-1-2.4-1.8-7.6-9.4-17.1-15.2-29.2-16.4a45.29,45.29,0,0,0-11.6.7c-5.3.8-6.3,2.2-5.1,7.6A32.16,32.16,0,0,0,90,167.37c8.8,7.1,18.5,11,29.9,7.5,4.9-1.5,5.1-2.2,2-6.2-4.4-5.9-9-11.7-15.5-15.6a26.68,26.68,0,0,0-15.4-3.9c-1.6.1-3.4.3-2.2,2.6,3,6,7,11.2,13.6,13.9a12.13,12.13,0,0,0,3.3.7c1.3.1,3.2.3,3.3-1.5s-1.6-1.8-3-2c-5.1-.5-8.3-3.6-11.1-7.6-.4-.6-1-1.3-.6-2,.6-1,1.5-.6,2.4-.4,7,1.3,12,5.9,16.7,10.8,1.6,1.6,2.8,3.5,4.3,5.2,2,2.4.8,3.3-1.6,3.6a24.76,24.76,0,0,1-9-.1c-12.6-2.9-21-10.5-25-22.8-1.4-4.4-.8-5.4,3.7-5.9,14.9-1.9,26.9,3.4,36.1,15.2,4.1,5.2,6.4,10.8,5.7,17.6-.5,4.3,0,8.7-.1,13.1,0,1.6.8,3.9-.7,4.5-1.7.7-2.4-1.7-3.3-2.8A40.53,40.53,0,0,0,102,177c-6.8-2-13.6-1.6-20.4-.1-4,.9-3.9,3.8-3.3,6.7,2.1,10.5,8,18.4,17.3,23.8,8,4.7,16.3,6.1,25.2,3.2,3.8-1.3,4.1-1.9,1.6-5.2-5.4-7.4-11.1-14.5-19.9-18.3a27.58,27.58,0,0,0-10.9-2.2c-3.2,0-3.8,1.1-2.3,3.9a31.08,31.08,0,0,0,8.8,10.6,13.67,13.67,0,0,0,7.2,2.8c1.3.1,3.2.4,3.5-1.2.3-1.8-1.6-1.8-2.9-2-4.5-.7-7.7-3.3-10.3-6.9-.6-.9-1.9-1.7-1.1-2.9s2-.4,3.1-.1a28.16,28.16,0,0,1,13.9,8.4c2.2,2.4,4.3,4.9,6.4,7.4,1.5,1.8,1,2.9-1.2,3.4a19.52,19.52,0,0,1-9.3.1c-12.6-3.1-21.3-10.6-25.2-23.2-1.3-4.1-.8-4.7,3.4-5.5,14.6-3,29.7,4.2,38.6,18.1a20,20,0,0,1,3.6,12.3c-.3,6.4-.1,12.7-.1,19.1a10.36,10.36,0,0,1-.4,3.6c-.5,1.3-1.7,1.4-4.5,1.4q-33.9,0-67.9.1c-3.5,0-4.5-1.4-4.5-4.7q.15-88.8,0-177.7c0-3.4,1.1-4.6,4.6-4.6q73.8.15,147.7,0c3.7,0,4.7,1.4,4.7,4.8C207.74,81.07,207.74,110.67,207.74,140.37Z" transform="translate(-40.24 -34.57)"/></svg>